<?xml version="1.0" encoding="UTF-8" standalone="no"?>
<svg
   xmlns:dc="http://purl.org/dc/elements/1.1/"
   xmlns:cc="http://creativecommons.org/ns#"
   xmlns:rdf="http://www.w3.org/1999/02/22-rdf-syntax-ns#"
   xmlns:svg="http://www.w3.org/2000/svg"
   xmlns="http://www.w3.org/2000/svg"
   xmlns:sodipodi="http://sodipodi.sourceforge.net/DTD/sodipodi-0.dtd"
   xmlns:inkscape="http://www.inkscape.org/namespaces/inkscape"
   data-name="Layer 1"
   width="1580.5227"
   height="651.81519"
   viewBox="0 0 1580.5227 651.81519"
   version="1.1"
   id="svg4064"
   sodipodi:docname="coworkers2.svg"
   inkscape:version="0.92.5 (2060ec1f9f, 2020-04-08)"
   style="opacity:0.8">
  <metadata
     id="metadata4070">
    <rdf:RDF>
      <cc:Work
         rdf:about="">
        <dc:format>image/svg+xml</dc:format>
        <dc:type
           rdf:resource="http://purl.org/dc/dcmitype/StillImage" />
        <dc:title></dc:title>
      </cc:Work>
    </rdf:RDF>
  </metadata>
  <defs
     id="defs4068" />
  <sodipodi:namedview
     pagecolor="#ffffff"
     bordercolor="#666666"
     borderopacity="1"
     objecttolerance="10"
     gridtolerance="10"
     guidetolerance="10"
     inkscape:pageopacity="0"
     inkscape:pageshadow="2"
     inkscape:window-width="1920"
     inkscape:window-height="1138"
     id="namedview4066"
     showgrid="false"
     inkscape:zoom="0.579161"
     inkscape:cx="613.02688"
     inkscape:cy="274.66391"
     inkscape:window-x="0"
     inkscape:window-y="32"
     inkscape:window-maximized="1"
     inkscape:current-layer="svg4064" />
  <path
     d="m 1415.2667,373.90791 a 308.60439,308.60439 0 0 1 -13.3649,96.561 c -0.3344,1.13588 -0.7354,2.27178 -1.1363,3.40808 h -196.7303 a 176.55941,176.55941 0 0 1 13.2983,-40.0945 c 16.3716,-34.74863 43.1012,-64.48548 69.4969,-94.02163 36.3523,-40.6961 71.836,-81.05775 77.4494,-133.9824 a 303.9407,303.9407 0 0 1 34.214,70.63319 83.018585,83.018585 0 0 0 -27.4647,16.83942 c -2.2053,2.07152 -4.5444,5.0787 -3.4081,7.95208 1.069,2.40557 4.0093,3.20784 6.6154,3.74214 6.2815,1.2028 12.563,2.40557 18.8446,3.54188 4.9449,1.00201 9.9566,1.93775 14.9685,2.8734 a 328.1302,328.1302 0 0 1 7.2172,62.54734 z"
     id="path3826"
     inkscape:connector-curvature="0"
     style="fill:#f2f2f2;stroke-width:1.79572165" />
  <path
     d="m 1580.5227,352.25694 c -31.5412,19.17849 -51.5886,48.84844 -67.9601,82.05985 a 83.937601,83.937601 0 0 0 -38.1567,20.04726 c -2.2722,2.07194 -4.6109,5.07869 -3.4081,7.95208 1.0025,2.40598 4.0097,3.20784 6.6154,3.74215 6.2146,1.20313 12.563,2.40597 18.7775,3.54188 -0.6011,1.40344 -1.2026,2.87339 -1.8039,4.27683 h -208.4913 a 294.81164,294.81164 0 0 1 31.3405,-35.81772 c 2.4724,-2.47286 5.0118,-4.81154 7.618,-7.21713 a 311.83234,311.83234 0 0 1 90.2127,-56.93431 317.36435,317.36435 0 0 1 165.256,-21.65089 z"
     id="path3828"
     inkscape:connector-curvature="0"
     style="fill:#f2f2f2;stroke-width:1.79572165" />
  <path
     d="m 1320.8441,473.87699 h -185.6377 a 301.55844,301.55844 0 0 1 0.2675,-44.63848 c 7.4174,-91.74988 57.3348,-179.15557 132.6458,-232.0806 -9.6227,34.2808 -4.6778,68.36132 5.3458,102.57532 -1.403,0.46782 -2.8064,0.86875 -4.0761,1.40305 a 83.026397,83.026397 0 0 0 -27.4647,16.83983 c -2.2052,2.07153 -4.5439,5.07869 -3.408,7.95208 1.0021,2.40557 4.0093,3.20743 6.6154,3.74215 6.2814,1.20277 12.563,2.40556 18.7776,3.54188 5.0118,1.00201 10.0237,1.93774 15.0355,2.94028 2.3386,0.4009 4.6778,0.86834 7.0164,1.33613 0.334,0.80187 0.5347,1.53726 0.8688,2.27223 11.761,32.40954 24.5912,65.08667 30.6056,98.29849 a 229.45359,229.45359 0 0 1 3.074,25.19242 c 0.2003,3.54188 0.3341,7.08335 0.3341,10.62522 z"
     id="path3830"
     inkscape:connector-curvature="0"
     style="fill:#f2f2f2;stroke-width:1.79572165" />
  <path
     d="m 309.10207,373.90791 a 308.60439,308.60439 0 0 1 -13.36484,96.561 c -0.33444,1.13588 -0.73537,2.27178 -1.13629,3.40808 H 97.87055 a 176.55941,176.55941 0 0 1 13.29836,-40.0945 c 16.3716,-34.74863 43.10126,-64.48548 69.49689,-94.02163 36.35236,-40.6961 71.83606,-81.05775 77.44948,-133.9824 a 303.9407,303.9407 0 0 1 34.21389,70.63319 83.018585,83.018585 0 0 0 -27.46465,16.83942 c -2.20531,2.07152 -4.5444,5.0787 -3.40808,7.95208 1.06899,2.40557 4.00927,3.20784 6.61544,3.74214 6.28143,1.2028 12.56298,2.40557 18.84446,3.54188 4.94493,1.00201 9.95674,1.93775 14.96856,2.8734 a 328.1302,328.1302 0 0 1 7.21717,62.54734 z"
     id="path3832"
     inkscape:connector-curvature="0"
     style="fill:#f2f2f2;stroke-width:1.79572165" />
  <path
     d="m 474.3581,352.25694 c -31.54122,19.17849 -51.58846,48.84844 -67.96006,82.05985 a 83.937601,83.937601 0 0 0 -38.15675,20.04726 c -2.2722,2.07194 -4.61087,5.07869 -3.4081,7.95208 1.00254,2.40598 4.0097,3.20784 6.61553,3.74215 6.2146,1.20313 12.56297,2.40597 18.77757,3.54188 -0.60118,1.40344 -1.20277,2.87339 -1.80396,4.27683 H 179.93084 a 294.81164,294.81164 0 0 1 31.34056,-35.81772 c 2.47246,-2.47286 5.01186,-4.81154 7.61805,-7.21713 a 311.83234,311.83234 0 0 1 90.21262,-56.93431 317.36435,317.36435 0 0 1 165.25603,-21.65089 z"
     id="path3834"
     inkscape:connector-curvature="0"
     style="fill:#f2f2f2;stroke-width:1.79572165" />
  <path
     d="M 214.6795,473.87699 H 29.041758 a 301.55844,301.55844 0 0 1 0.267563,-44.63848 c 7.41739,-91.74988 57.334849,-179.15557 132.645809,-232.0806 -9.62269,34.2808 -4.67785,68.36132 5.34587,102.57532 -1.40305,0.46782 -2.80649,0.86875 -4.07618,1.40305 a 83.026397,83.026397 0 0 0 -27.46463,16.83983 c -2.2053,2.07153 -4.544,5.07869 -3.4081,7.95208 1.00212,2.40557 4.00929,3.20743 6.61544,3.74215 6.28143,1.20277 12.56297,2.40556 18.77758,3.54188 5.01186,1.00201 10.02371,1.93774 15.03543,2.94028 2.33869,0.4009 4.67785,0.86834 7.01645,1.33613 0.33401,0.80187 0.53472,1.53726 0.86876,2.27223 11.76111,32.40954 24.59124,65.08667 30.60558,98.29849 a 229.45359,229.45359 0 0 1 3.07406,25.19242 c 0.20039,3.54188 0.33411,7.08335 0.33411,10.62522 z"
     id="path3836"
     inkscape:connector-curvature="0"
     style="fill:#f2f2f2;stroke-width:1.79572165" />
  <path
     d="m 375.1981,439.95173 a 47.966008,47.966008 0 0 0 3.46574,17.9213 45.863541,45.863541 0 0 0 3.14251,6.39278 48.656875,48.656875 0 0 0 5.42308,7.50611 48.054231,48.054231 0 0 0 36.12992,16.35902 h 702.68385 a 48.161258,48.161258 0 0 0 0,-96.32251 H 423.35935 a 48.208735,48.208735 0 0 0 -48.16125,48.1433 z"
     id="path3850"
     inkscape:connector-curvature="0"
     style="fill:#e6e6e6;stroke-width:1.79572165" />
  <path
     d="m 0,467.4622 a 518.97076,518.97076 0 0 0 50.495695,51.98615 H 1498.8889 a 518.97076,518.97076 0 0 0 50.4956,-51.98615 z"
     id="path3856"
     style="fill:#576066;fill-opacity:1;stroke-width:1.79572165"
     inkscape:connector-curvature="0" />
  <path
     d="M 712.34485,293.61839 V 477.78761 H 841.36746 V 293.61839 a 6.1916485,6.1916485 0 0 0 -4.36361,-5.92589 5.7006443,5.7006443 0 0 0 -1.84959,-0.28731 H 718.57595 a 6.2190692,6.2190692 0 0 0 -6.2311,6.2132 z m 50.35203,63.28123 a 13.773796,13.773796 0 0 1 27.54638,0 v 21.36909 a 13.773366,13.773366 0 0 1 -27.54638,0 z"
     id="path3858"
     style="fill:#365465;fill-opacity:1;stroke-width:1.79572165"
     inkscape:connector-curvature="0" />
  <path
     d="m 711.94992,471.89769 v 17.75969 a 3.4948696,3.4948696 0 0 0 3.46574,3.4837 H 838.2969 a 3.4831793,3.4831793 0 0 0 3.46574,-3.4837 v -17.75969 z"
     id="path3860"
     style="fill:#576066;fill-opacity:1;stroke-width:1.79572165"
     inkscape:connector-curvature="0" />
  <path
     d="m 509.37437,16.14353 v 336.26686 a 16.174317,16.174317 0 0 0 16.1615,16.16149 h 498.31273 a 16.174245,16.174245 0 0 0 16.1615,-16.16149 V 16.14353 A 16.182092,16.182092 0 0 0 1023.8486,0 H 525.53587 a 16.182164,16.182164 0 0 0 -16.1615,16.14353 z"
     id="path3862"
     style="fill:#576066;fill-opacity:1;stroke-width:1.79572165"
     inkscape:connector-curvature="0" />
  <path
     d="m 521.06453,20.3275 v 327.9347 a 8.6523978,8.6523978 0 0 0 8.63742,8.63742 h 489.99855 a 8.652308,8.652308 0 0 0 8.6375,-8.63742 V 20.3275 a 8.6562047,8.6562047 0 0 0 -8.6375,-8.65539 H 529.70195 a 8.6562945,8.6562945 0 0 0 -8.63742,8.65539 z"
     id="path3864"
     style="fill:#6396ff;fill-opacity:1;stroke-width:1.79572165"
     inkscape:connector-curvature="0" />
  <path
     d="m 620.97853,497.32505 a 5.294488,5.294488 0 0 0 4.16607,1.99326 h 291.51759 a 5.3642518,5.3642518 0 0 0 5.24351,-6.4646 l -4.52522,-21.49479 a 5.3739127,5.3739127 0 0 0 -3.34004,-3.89672 5.1977345,5.1977345 0 0 0 -1.90347,-0.35914 H 629.65199 a 5.1972137,5.1972137 0 0 0 -1.90347,0.35914 5.3734638,5.3734638 0 0 0 -3.34003,3.89672 l -4.52523,21.49479 a 5.3601215,5.3601215 0 0 0 1.09527,4.47134 z"
     id="path3866"
     style="fill:#365465;fill-opacity:1;stroke-width:1.79572165"
     inkscape:connector-curvature="0" />
  <rect
     x="-910.06641"
     y="-476.36145"
     width="8.9786091"
     height="5.3871651"
     rx="0.87665337"
     transform="scale(-1)"
     id="rect3868"
     style="fill:#576066;fill-opacity:1;stroke-width:1.79572165" />
  <rect
     x="-892.10919"
     y="-476.36145"
     width="8.9786091"
     height="5.3871651"
     rx="0.87665337"
     transform="scale(-1)"
     id="rect3870"
     style="fill:#576066;fill-opacity:1;stroke-width:1.79572165" />
  <rect
     x="-874.15198"
     y="-476.36145"
     width="8.9786091"
     height="5.3871651"
     rx="0.87665337"
     transform="scale(-1)"
     id="rect3872"
     style="fill:#576066;fill-opacity:1;stroke-width:1.79572165" />
  <rect
     x="-856.19476"
     y="-476.36145"
     width="8.9786091"
     height="5.3871651"
     rx="0.87665337"
     transform="scale(-1)"
     id="rect3874"
     style="fill:#576066;fill-opacity:1;stroke-width:1.79572165" />
  <rect
     x="-838.23755"
     y="-476.36145"
     width="8.9786091"
     height="5.3871651"
     rx="0.87665337"
     transform="scale(-1)"
     id="rect3876"
     style="fill:#576066;fill-opacity:1;stroke-width:1.79572165" />
  <rect
     x="-820.28033"
     y="-476.36145"
     width="8.9786091"
     height="5.3871651"
     rx="0.87665337"
     transform="scale(-1)"
     id="rect3878"
     style="fill:#576066;fill-opacity:1;stroke-width:1.79572165" />
  <rect
     x="-802.32312"
     y="-476.36145"
     width="8.9786091"
     height="5.3871651"
     rx="0.87665337"
     transform="scale(-1)"
     id="rect3880"
     style="fill:#576066;fill-opacity:1;stroke-width:1.79572165" />
  <rect
     x="-784.36597"
     y="-476.36145"
     width="8.9786091"
     height="5.3871651"
     rx="0.87665337"
     transform="scale(-1)"
     id="rect3882"
     style="fill:#576066;fill-opacity:1;stroke-width:1.79572165" />
  <rect
     x="-766.40875"
     y="-476.36145"
     width="8.9786091"
     height="5.3871651"
     rx="0.87665337"
     transform="scale(-1)"
     id="rect3884"
     style="fill:#576066;fill-opacity:1;stroke-width:1.79572165" />
  <rect
     x="-748.45148"
     y="-476.36145"
     width="8.9786091"
     height="5.3871651"
     rx="0.87665337"
     transform="scale(-1)"
     id="rect3886"
     style="fill:#576066;fill-opacity:1;stroke-width:1.79572165" />
  <rect
     x="-730.49426"
     y="-476.36145"
     width="8.9786091"
     height="5.3871651"
     rx="0.87665337"
     transform="scale(-1)"
     id="rect3888"
     style="fill:#576066;fill-opacity:1;stroke-width:1.79572165" />
  <rect
     x="-712.53705"
     y="-476.36145"
     width="8.9786091"
     height="5.3871651"
     rx="0.87665337"
     transform="scale(-1)"
     id="rect3890"
     style="fill:#576066;fill-opacity:1;stroke-width:1.79572165" />
  <rect
     x="-694.57983"
     y="-476.36145"
     width="8.9786091"
     height="5.3871651"
     rx="0.87665337"
     transform="scale(-1)"
     id="rect3892"
     style="fill:#576066;fill-opacity:1;stroke-width:1.79572165" />
  <rect
     x="-676.62262"
     y="-476.36145"
     width="8.9786091"
     height="5.3871651"
     rx="0.87665337"
     transform="scale(-1)"
     id="rect3894"
     style="fill:#576066;fill-opacity:1;stroke-width:1.79572165" />
  <rect
     x="-658.66541"
     y="-476.36145"
     width="8.9786091"
     height="5.3871651"
     rx="0.87665337"
     transform="scale(-1)"
     id="rect3896"
     style="fill:#576066;fill-opacity:1;stroke-width:1.79572165" />
  <rect
     x="-640.70819"
     y="-476.36145"
     width="8.9786091"
     height="5.3871651"
     rx="0.87665337"
     transform="scale(-1)"
     id="rect3898"
     style="fill:#576066;fill-opacity:1;stroke-width:1.79572165" />
  <rect
     x="-910.27863"
     y="-485.34009"
     width="8.9786091"
     height="5.3871651"
     rx="0.87665337"
     transform="scale(-1)"
     id="rect3900"
     style="fill:#576066;fill-opacity:1;stroke-width:1.79572165" />
  <rect
     x="-892.32141"
     y="-485.34009"
     width="8.9786091"
     height="5.3871651"
     rx="0.87665337"
     transform="scale(-1)"
     id="rect3902"
     style="fill:#576066;fill-opacity:1;stroke-width:1.79572165" />
  <rect
     x="-874.3642"
     y="-485.34009"
     width="8.9786091"
     height="5.3871651"
     rx="0.87665337"
     transform="scale(-1)"
     id="rect3904"
     style="fill:#576066;fill-opacity:1;stroke-width:1.79572165" />
  <rect
     x="-856.40698"
     y="-485.34009"
     width="8.9786091"
     height="5.3871651"
     rx="0.87665337"
     transform="scale(-1)"
     id="rect3906"
     style="fill:#576066;fill-opacity:1;stroke-width:1.79572165" />
  <rect
     x="-838.44971"
     y="-485.34009"
     width="8.9786091"
     height="5.3871651"
     rx="0.87665337"
     transform="scale(-1)"
     id="rect3908"
     style="fill:#576066;fill-opacity:1;stroke-width:1.79572165" />
  <rect
     x="-820.49249"
     y="-485.34009"
     width="8.9786091"
     height="5.3871651"
     rx="0.87665337"
     transform="scale(-1)"
     id="rect3910"
     style="fill:#576066;fill-opacity:1;stroke-width:1.79572165" />
  <rect
     x="-802.53528"
     y="-485.34009"
     width="8.9786091"
     height="5.3871651"
     rx="0.87665337"
     transform="scale(-1)"
     id="rect3912"
     style="fill:#576066;fill-opacity:1;stroke-width:1.79572165" />
  <rect
     x="-784.57806"
     y="-485.34009"
     width="8.9786091"
     height="5.3871651"
     rx="0.87665337"
     transform="scale(-1)"
     id="rect3914"
     style="fill:#576066;fill-opacity:1;stroke-width:1.79572165" />
  <rect
     x="-766.62085"
     y="-485.34009"
     width="8.9786091"
     height="5.3871651"
     rx="0.87665337"
     transform="scale(-1)"
     id="rect3916"
     style="fill:#576066;fill-opacity:1;stroke-width:1.79572165" />
  <rect
     x="-748.66364"
     y="-485.34009"
     width="8.9786091"
     height="5.3871651"
     rx="0.87665337"
     transform="scale(-1)"
     id="rect3918"
     style="fill:#576066;fill-opacity:1;stroke-width:1.79572165" />
  <rect
     x="-730.70642"
     y="-485.34009"
     width="8.9786091"
     height="5.3871651"
     rx="0.87665337"
     transform="scale(-1)"
     id="rect3920"
     style="fill:#576066;fill-opacity:1;stroke-width:1.79572165" />
  <rect
     x="-712.74927"
     y="-485.34009"
     width="8.9786091"
     height="5.3871651"
     rx="0.87665337"
     transform="scale(-1)"
     id="rect3922"
     style="fill:#576066;fill-opacity:1;stroke-width:1.79572165" />
  <rect
     x="-694.79205"
     y="-485.34009"
     width="8.9786091"
     height="5.3871651"
     rx="0.87665337"
     transform="scale(-1)"
     id="rect3924"
     style="fill:#576066;fill-opacity:1;stroke-width:1.79572165" />
  <rect
     x="-676.83484"
     y="-485.34009"
     width="8.9786091"
     height="5.3871651"
     rx="0.87665337"
     transform="scale(-1)"
     id="rect3926"
     style="fill:#576066;fill-opacity:1;stroke-width:1.79572165" />
  <rect
     x="-658.87762"
     y="-485.34009"
     width="8.9786091"
     height="5.3871651"
     rx="0.87665337"
     transform="scale(-1)"
     id="rect3928"
     style="fill:#576066;fill-opacity:1;stroke-width:1.79572165" />
  <rect
     x="-640.92041"
     y="-485.34009"
     width="8.9786091"
     height="5.3871651"
     rx="0.87665337"
     transform="scale(-1)"
     id="rect3930"
     style="fill:#576066;fill-opacity:1;stroke-width:1.79572165" />
  <rect
     x="-824.08392"
     y="-496.11438"
     width="71.828873"
     height="5.3871651"
     rx="0.87665337"
     transform="scale(-1)"
     id="rect3932"
     style="fill:#576066;fill-opacity:1;stroke-width:1.79572165" />
  <path
     d="m 554.32469,56.84659 h 458.48971 a 1.8237171,1.8237171 0 0 0 0,-3.64656 H 554.32469 a 1.8237171,1.8237171 0 0 0 0,3.64656 z"
     id="path3934"
     style="fill:#576066;fill-opacity:1;stroke-width:1.79572165"
     inkscape:connector-curvature="0" />
  <ellipse
     cx="981.60437"
     cy="32.967262"
     rx="10.685317"
     ry="10.923448"
     id="ellipse3936"
     style="fill:#576066;fill-opacity:1;stroke-width:1.79572165" />
  <ellipse
     cx="944.69159"
     cy="32.967262"
     rx="10.685317"
     ry="10.923448"
     id="ellipse3938"
     style="fill:#576066;fill-opacity:1;stroke-width:1.79572165" />
  <ellipse
     cx="907.77869"
     cy="32.967262"
     rx="10.685317"
     ry="10.923448"
     id="ellipse3940"
     style="fill:#576066;fill-opacity:1;stroke-width:1.79572165" />
  <path
     d="m 574.595,26.73823 a 1.9659562,1.9659562 0 0 0 1.95734,1.97529 h 26.21754 a 1.9848112,1.9848112 0 0 0 0,-3.96855 h -26.21754 a 1.9813994,1.9813994 0 0 0 -1.95734,1.99326 z"
     id="path3942"
     style="fill:#576066;fill-opacity:1;stroke-width:1.79572165"
     inkscape:connector-curvature="0" />
  <path
     d="m 574.595,34.19052 a 1.9658664,1.9658664 0 0 0 1.95734,1.97529 h 26.21754 a 1.9847573,1.9847573 0 0 0 0,-3.96854 h -26.21754 a 1.9813994,1.9813994 0 0 0 -1.95734,1.99325 z"
     id="path3944"
     style="fill:#576066;fill-opacity:1;stroke-width:1.79572165"
     inkscape:connector-curvature="0" />
  <path
     d="m 574.595,41.62482 a 1.9813994,1.9813994 0 0 0 1.95734,1.99326 h 26.21754 a 1.9848112,1.9848112 0 0 0 0,-3.96855 h -26.21754 a 1.9658843,1.9658843 0 0 0 -1.95734,1.97529 z"
     id="path3946"
     style="fill:#576066;fill-opacity:1;stroke-width:1.79572165"
     inkscape:connector-curvature="0" />
  <rect
     x="568.10529"
     y="99.219505"
     width="19.763876"
     height="10.343214"
     rx="5.171607"
     id="rect3948"
     style="fill:#e6e6e6;stroke-width:1.79572165" />
  <rect
     x="675.84857"
     y="99.219505"
     width="19.763876"
     height="10.343214"
     rx="5.171607"
     id="rect3950"
     style="fill:#e6e6e6;stroke-width:1.79572165" />
  <rect
     x="706.37592"
     y="99.219505"
     width="19.763876"
     height="10.343214"
     rx="5.171607"
     id="rect3952"
     style="fill:#e6e6e6;stroke-width:1.79572165" />
  <rect
     x="597.4118"
     y="98.357277"
     width="68.894119"
     height="10.343214"
     rx="5.171607"
     id="rect3954"
     style="fill:#e6e6e6;stroke-width:1.79572165" />
  <rect
     x="741.06952"
     y="98.357277"
     width="68.894119"
     height="10.343214"
     rx="5.171607"
     id="rect3956"
     style="fill:#e6e6e6;stroke-width:1.79572165" />
  <rect
     x="596.83685"
     y="122.56391"
     width="19.763876"
     height="10.343214"
     rx="5.171607"
     id="rect3958"
     style="fill:#e6e6e6;stroke-width:1.79572165" />
  <rect
     x="704.5802"
     y="122.56391"
     width="19.763876"
     height="10.343214"
     rx="5.171607"
     id="rect3960"
     style="fill:#e6e6e6;stroke-width:1.79572165" />
  <rect
     x="735.10742"
     y="122.56391"
     width="19.763876"
     height="10.343214"
     rx="5.171607"
     id="rect3962"
     style="fill:#e6e6e6;stroke-width:1.79572165" />
  <rect
     x="626.14337"
     y="121.70164"
     width="68.894119"
     height="10.343214"
     rx="5.171607"
     id="rect3964"
     style="fill:#e6e6e6;stroke-width:1.79572165" />
  <rect
     x="769.80115"
     y="121.70164"
     width="68.894119"
     height="10.343214"
     rx="5.171607"
     id="rect3966"
     style="fill:#e6e6e6;stroke-width:1.79572165" />
  <rect
     x="625.56836"
     y="145.90833"
     width="19.763876"
     height="10.343214"
     rx="5.171607"
     id="rect3968"
     style="fill:#e6e6e6;stroke-width:1.79572165" />
  <rect
     x="733.31171"
     y="145.90833"
     width="19.763876"
     height="10.343214"
     rx="5.171607"
     id="rect3970"
     style="fill:#e6e6e6;stroke-width:1.79572165" />
  <rect
     x="763.83899"
     y="145.90833"
     width="19.763876"
     height="10.343214"
     rx="5.171607"
     id="rect3972"
     style="fill:#e6e6e6;stroke-width:1.79572165" />
  <rect
     x="654.87494"
     y="145.04596"
     width="68.894119"
     height="10.343214"
     rx="5.171607"
     id="rect3974"
     style="fill:#e6e6e6;stroke-width:1.79572165" />
  <rect
     x="798.53265"
     y="145.04596"
     width="68.894119"
     height="10.343214"
     rx="5.171607"
     id="rect3976"
     style="fill:#e6e6e6;stroke-width:1.79572165" />
  <rect
     x="654.29993"
     y="169.25269"
     width="19.763876"
     height="10.343214"
     rx="5.171607"
     id="rect3978"
     style="fill:#e6e6e6;stroke-width:1.79572165" />
  <rect
     x="762.04327"
     y="169.25269"
     width="19.763876"
     height="10.343214"
     rx="5.171607"
     id="rect3980"
     style="fill:#e6e6e6;stroke-width:1.79572165" />
  <rect
     x="792.5705"
     y="169.25269"
     width="19.763876"
     height="10.343214"
     rx="5.171607"
     id="rect3982"
     style="fill:#e6e6e6;stroke-width:1.79572165" />
  <rect
     x="683.60645"
     y="168.39038"
     width="68.894119"
     height="10.343214"
     rx="5.171607"
     id="rect3984"
     style="fill:#e6e6e6;stroke-width:1.79572165" />
  <rect
     x="675.84857"
     y="262.0798"
     width="19.763876"
     height="10.343214"
     rx="5.171607"
     id="rect3986"
     style="fill:#e6e6e6;stroke-width:1.79572165" />
  <rect
     x="706.37592"
     y="262.0798"
     width="19.763876"
     height="10.343214"
     rx="5.171607"
     id="rect3988"
     style="fill:#e6e6e6;stroke-width:1.79572165" />
  <rect
     x="741.06952"
     y="262.94205"
     width="68.894119"
     height="10.343214"
     rx="5.171607"
     id="rect3990"
     style="fill:#e6e6e6;stroke-width:1.79572165" />
  <rect
     x="568.10529"
     y="262.0798"
     width="19.763876"
     height="10.343214"
     rx="5.171607"
     id="rect3992"
     style="fill:#e6e6e6;stroke-width:1.79572165" />
  <rect
     x="597.4118"
     y="262.94205"
     width="68.894119"
     height="10.343214"
     rx="5.171607"
     id="rect3994"
     style="fill:#e6e6e6;stroke-width:1.79572165" />
  <rect
     x="596.83685"
     y="238.73541"
     width="19.763876"
     height="10.343214"
     rx="5.171607"
     id="rect3996"
     style="fill:#e6e6e6;stroke-width:1.79572165" />
  <rect
     x="704.5802"
     y="238.73541"
     width="19.763876"
     height="10.343214"
     rx="5.171607"
     id="rect3998"
     style="fill:#e6e6e6;stroke-width:1.79572165" />
  <rect
     x="735.10742"
     y="238.73541"
     width="19.763876"
     height="10.343214"
     rx="5.171607"
     id="rect4000"
     style="fill:#e6e6e6;stroke-width:1.79572165" />
  <rect
     x="626.14337"
     y="239.59769"
     width="68.894119"
     height="10.343214"
     rx="5.171607"
     id="rect4002"
     style="fill:#e6e6e6;stroke-width:1.79572165" />
  <rect
     x="625.56836"
     y="215.39105"
     width="19.763876"
     height="10.343214"
     rx="5.171607"
     id="rect4004"
     style="fill:#e6e6e6;stroke-width:1.79572165" />
  <rect
     x="733.31171"
     y="215.39105"
     width="19.763876"
     height="10.343214"
     rx="5.171607"
     id="rect4006"
     style="fill:#e6e6e6;stroke-width:1.79572165" />
  <rect
     x="763.83899"
     y="215.39105"
     width="19.763876"
     height="10.343214"
     rx="5.171607"
     id="rect4008"
     style="fill:#e6e6e6;stroke-width:1.79572165" />
  <rect
     x="654.87494"
     y="216.25327"
     width="68.894119"
     height="10.343214"
     rx="5.171607"
     id="rect4010"
     style="fill:#e6e6e6;stroke-width:1.79572165" />
  <rect
     x="654.29993"
     y="192.04666"
     width="19.763876"
     height="10.343214"
     rx="5.171607"
     id="rect4012"
     style="fill:#e6e6e6;stroke-width:1.79572165" />
  <rect
     x="762.04327"
     y="192.04666"
     width="19.763876"
     height="10.343214"
     rx="5.171607"
     id="rect4014"
     style="fill:#e6e6e6;stroke-width:1.79572165" />
  <rect
     x="792.5705"
     y="192.04666"
     width="19.763876"
     height="10.343214"
     rx="5.171607"
     id="rect4016"
     style="fill:#e6e6e6;stroke-width:1.79572165" />
  <rect
     x="683.60645"
     y="192.90891"
     width="68.894119"
     height="10.343214"
     rx="5.171607"
     id="rect4018"
     style="fill:#e6e6e6;stroke-width:1.79572165" />
  <path
     d="m 628.34447,597.3687 c -0.39506,0.19762 -0.79012,0.39506 -1.18518,0.57463 q -3.74407,1.85857 -7.54203,3.66327 -11.36692,5.41411 -23.02115,10.28949 a 512.64754,512.64754 0 0 1 -62.79639,21.60253 c -3.59145,-22.39264 -7.07514,-75.20483 -10.41518,-114.04629 -0.62851,-7.30859 -1.25701,-14.11445 -1.88551,-20.13003 a 174.46379,174.46379 0 0 0 -3.39391,-23.48804 7.8278203,7.8278203 0 0 0 -0.70034,-1.74186 c 0.34119,3.1066 0.70034,12.37253 1.04152,25.2299 0.17957,6.01566 0.34119,12.82144 0.52076,20.13003 0.84399,37.38693 1.7239,88.25973 2.60379,117.22472 -2.49605,0.61055 -5.01005,1.22108 -7.52407,1.79573 -1.58023,0.37709 -3.17842,0.73624 -4.77661,1.07743 -1.93939,0.43096 -3.87876,0.86194 -5.81815,1.25691 q -3.04374,0.64662 -6.08749,1.23905 a 520.8892,520.8892 0 0 1 -100.66816,9.76872 c -2.24465,0 -4.47135,-0.018 -6.71599,-0.0359 -0.68238,0 -1.36476,-0.018 -2.06509,-0.0359 -1.97529,-0.0359 -4.02241,-0.0719 -6.10545,-0.1257 A 518.22931,518.22931 0 0 1 263.57952,634.57596 l 1.56228,-115.12371 0.26935,-20.13004 0.10776,-7.63182 a 27.263185,27.263185 0 0 0 -1.58024,7.63182 c -0.6285,4.90231 -1.27496,11.85175 -1.92142,20.13004 -2.46014,31.89201 -4.99211,83.33944 -7.61386,112.60971 -31.04803,-8.83495 -53.74595,-16.89775 -82.11835,-31.08395 -1.09548,-0.53872 -2.20874,-1.09539 -3.30413,-1.65207 0.19753,-1.3827 0.41301,-2.7654 0.61054,-4.18402 3.21435,-22.33878 -0.57463,-51.41152 2.9809,-75.68967 2.71154,-18.72938 5.51287,-36.72251 8.33216,-51.98615 3.41186,-18.37023 6.87751,-32.80783 10.30744,-39.82911 3.95058,-8.0987 7.90117,-16.07171 11.72605,-23.70352 q 2.47821,-4.92926 4.86641,-9.67895 c 0.86195,-1.70592 1.72389,-3.39391 2.56789,-5.04597 3.84284,-7.52407 7.4702,-14.47352 10.79228,-20.63285 2.33444,-4.32768 4.4893,-8.24236 6.4646,-11.67219 2.31648,-4.04037 4.3636,-7.38041 6.05159,-9.91238 a 99.314006,99.314006 0 0 1 52.57872,-39.88298 l 0.53872,-0.14366 0.52076,0.21549 0.5925,0.26936 34.22646,-12.51618 15.28158,-36.79434 78.491,-4.83049 12.6778,9.64302 6.48255,4.93824 6.91353,5.26147 12.71371,9.67893 3.60941,1.11336 5.3692,1.65206 36.7225,11.27713 0.37711,-0.16161 0.53872,0.14365 a 99.066214,99.066214 0 0 1 49.13095,35.01657 c 1.22109,1.58024 2.35239,3.21435 3.44778,4.86641 2.9809,4.41747 7.00331,11.40283 11.74402,20.16595 1.95734,3.6094 4.02242,7.52408 6.19524,11.67219 1.31088,2.49605 12.62392,37.79995 23.63169,73.85804 10.28949,33.75957 20.30962,68.18356 21.6205,77.01851 0.23345,1.63411 0.48484,3.28608 0.71828,4.92027 1.49046,10.21766 2.96295,20.50714 4.38157,30.54523 2.10099,14.88654 4.14811,29.25231 6.10545,42.09172 0.018,0.12587 0.0359,0.23364 0.0539,0.35923 z"
     id="path4020"
     style="fill:#576066;fill-opacity:1;stroke-width:1.79572165"
     inkscape:connector-curvature="0" />
  <polygon
     points="295.093,440.774 287.59,469.07 303.59,473.566 "
     id="polygon4022"
     style="opacity:0.2"
     transform="matrix(1.7957218,0,0,1.7957218,0,-383.00954)" />
  <path
     d="m 28.425017,466.70039 a 11.521727,11.521727 0 0 0 11.103146,7.77726 L 87.1001,473.25337 a 11.364171,11.364171 0 0 0 10.73994,-8.36268 l 6.73196,-71.98548 a 17.587298,17.587298 0 0 0 7.61013,1.56369 17.349067,17.349067 0 0 0 -0.87073,-34.6872 14.696061,14.696061 0 0 0 -3.11769,0.32423 11.757793,11.757793 0 0 0 -8.75244,-3.7764 l -73.176595,1.88962 a 10.512478,10.512478 0 0 0 -1.805041,0.22411 11.428961,11.428961 0 0 0 -8.750876,14.84099 z m 77.527523,-78.68285 4.79032,-17.15407 a 11.683647,11.683647 0 0 0 0.0366,-6.0598 c 0.23244,-6.1e-4 0.4375,-0.1108 0.66991,-0.11134 a 12.409317,12.409317 0 0 1 0.58106,24.81174 11.681582,11.681582 0 0 1 -6.07787,-1.48653 z"
     id="path4024"
     style="fill:#365465;fill-opacity:1;stroke-width:1.79572165"
     inkscape:connector-curvature="0" />
  <path
     d="m 24.459651,358.44324 c 1.55901,8.91418 19.086888,15.18081 40.162843,14.09156 19.380726,-0.89294 35.227496,-7.69825 38.130736,-15.76375 a 10.819223,10.819223 0 0 0 -3.31194,-0.44154 l -73.176597,1.88962 a 10.512478,10.512478 0 0 0 -1.805042,0.22411 z"
     id="path4026"
     style="fill:#576066;fill-opacity:1;stroke-width:1.79572165"
     inkscape:connector-curvature="0" />
  <path
     d="m 68.48511,427.14382 a 0.89202477,0.89202477 0 0 0 0.271009,-0.11924 l 10.331057,-6.76208 a 0.89647816,0.89647816 0 0 0 5.74e-4,-1.5016 L 68.349712,411.72765 A 0.89735806,0.89735806 0 1 0 67.3658,413.2286 l 9.590788,6.28177 -9.18332,6.01196 a 0.89769925,0.89769925 0 0 0 0.711769,1.62154 z"
     id="path4028"
     inkscape:connector-curvature="0"
     style="fill:#6c63ff;stroke-width:1.79572165" />
  <path
     d="m 52.167835,427.89629 a 0.89786086,0.89786086 0 0 0 0.226387,-1.64922 l -9.522803,-5.4596 9.204152,-6.83674 a 0.89720893,0.89720893 0 1 0 -1.070251,-1.4403 l -10.304982,7.65453 a 0.89698096,0.89698096 0 0 0 0.08835,1.499 l 10.711947,6.14079 a 0.89723236,0.89723236 0 0 0 0.667236,0.0916 z"
     id="path4030"
     inkscape:connector-curvature="0"
     style="fill:#6c63ff;stroke-width:1.79572165" />
  <path
     d="m 67.457561,433.06971 a 0.86553786,0.86553786 0 0 0 0.246014,-0.10396 0.89742989,0.89742989 0 0 0 0.300801,-1.23392 L 53.359404,407.65415 a 0.89832775,0.89832775 0 0 0 -1.534283,0.93482 l 14.644901,24.07766 a 0.89845345,0.89845345 0 0 0 0.987539,0.403 z"
     id="path4032"
     inkscape:connector-curvature="0"
     style="fill:#6c63ff;stroke-width:1.79572165" />
  <path
     d="m 1409.9092,599.32203 c -1.0953,0.55668 -2.2087,1.11335 -3.3041,1.65207 -28.3724,14.18619 -51.0704,22.24898 -82.1184,31.08394 -2.6217,-29.27026 -5.1537,-80.71769 -7.6138,-112.60971 -0.6465,-8.27828 -1.2929,-15.22772 -1.9215,-20.13004 a 27.262917,27.262917 0 0 0 -1.5801,-7.63182 l 0.1073,7.63182 0.2694,20.13004 1.5623,115.12372 A 518.22356,518.22356 0 0 1 1197.08,651.61344 c -2.0831,0.0539 -4.1301,0.0898 -6.1055,0.12571 -0.7003,0.018 -1.3827,0.0359 -2.065,0.0359 -2.2447,0.018 -4.4714,0.0359 -6.716,0.0359 a 519.45039,519.45039 0 0 1 -124.8742,-15.13788 c 0.8799,-28.96499 1.7598,-79.83778 2.6037,-117.22471 0.1796,-7.30859 0.3412,-14.11437 0.5207,-20.13004 0.3412,-12.85737 0.7004,-22.12329 1.0416,-25.22989 a 7.8322737,7.8322737 0 0 0 -0.7004,1.74185 174.46133,174.46133 0 0 0 -3.3939,23.48804 c -0.6285,6.01567 -1.257,12.82145 -1.8855,20.13004 -3.34,38.84146 -6.8237,91.65364 -10.4152,114.04629 a 512.62938,512.62938 0 0 1 -62.7964,-21.60254 q -16.16146,-6.73395 -31.74833,-14.52739 c 1.97531,-12.92919 4.04038,-27.42066 6.15933,-42.45085 1.65206,-11.65424 3.358,-23.6317 5.09985,-35.46551 2.69358,-18.28044 94.20355,-215.68414 115.77015,-222.59767 l 0.5388,-0.14365 0.377,0.16162 36.7225,-11.27714 5.3693,-1.65207 3.6093,-1.11334 12.7138,-9.67894 6.9135,-5.26147 6.4826,-4.93823 12.6777,-9.64302 78.4911,4.83049 15.2816,36.79433 34.2264,12.51618 0.5926,-0.26935 0.5208,-0.21549 0.5387,0.14366 a 99.314186,99.314186 0 0 1 52.5787,39.88298 c 1.688,2.53197 3.7351,5.872 6.0515,9.91238 1.9753,3.42983 4.1302,7.34451 6.4647,11.67219 3.322,6.15941 6.9494,13.10886 10.7922,20.63285 0.844,1.65206 1.706,3.34003 2.5679,5.04597 q 2.3974,4.74058 4.8665,9.67885 c 3.8249,7.63182 7.7755,15.60483 11.726,23.70353 3.4298,7.02128 6.8955,21.45887 10.3075,39.82911 2.8193,15.26364 5.6205,33.25676 8.3322,51.98614 3.5554,24.27816 -0.2336,53.3509 2.9808,75.68968 0.1977,1.41874 0.4132,2.80148 0.6106,4.18411 z"
     id="path4034"
     style="fill:#576066;fill-opacity:1;stroke-width:1.79572165"
     inkscape:connector-curvature="0" />
  <circle
     cx="1179.7069"
     cy="148.80829"
     r="91.288116"
     id="circle4036"
     style="fill:#ffb6b6;stroke-width:1.79572165" />
  <polygon
     points="584.156,440.774 591.659,469.07 575.659,473.566 "
     id="polygon4038"
     style="opacity:0.2"
     transform="matrix(1.7957218,0,0,1.7957218,0,-383.00954)" />
  <path
     d="m 1439.7541,429.01584 c -5.4589,75.20482 0.1975,108.31793 -29.9346,170.32421 a 513.86286,513.86286 0 0 1 -85.3328,32.71804 q -4.579,1.29292 -9.1761,2.51402 a 518.22356,518.22356 0 0 1 -118.2303,17.04139 c -2.083,0.0539 -4.1301,0.0898 -6.1054,0.1257 -0.7003,0.018 -1.3828,0.0359 -2.0651,0.0359 -2.2447,0.018 -4.4714,0.0359 -6.716,0.0359 a 519.45039,519.45039 0 0 1 -124.8745,-15.13786 q -6.1414,-1.50841 -12.2289,-3.17843 A 512.62938,512.62938 0 0 1 982.294,611.89217 q -16.16146,-6.73395 -31.74834,-14.52738 c -2.35239,-1.18518 -4.70479,-2.37036 -7.02126,-3.59145 -11.90564,-20.93811 -18.67552,-46.40145 -18.81917,-77.00054 8.24246,-52.72237 496.84027,-133.2246 515.04887,-87.75692 z"
     id="path4040"
     style="fill:#365465;fill-opacity:1;stroke-width:1.79572165"
     inkscape:connector-curvature="0" />
  <path
     d="m 1439.74,441.89508 c 0.2788,-4.65579 0.5906,-9.46513 0.9541,-14.47329 -18.2086,-45.46767 -506.8065,35.03454 -515.04887,87.75693 0.0227,4.83379 0.22939,9.52475 0.57695,14.1046 19.96051,-52.03694 484.13512,-128.54911 513.51782,-87.38824 z"
     id="path4042"
     inkscape:connector-curvature="0"
     style="opacity:0.2;stroke-width:1.79572165" />
  <path
     d="m 912.55425,432.56284 40.10498,-20.05249 -33.42089,-90.23644 -8.80789,-45.50717 a 34.408488,34.408488 0 0 0 -56.17413,-19.5865 v 0 a 34.40847,34.40847 0 0 0 -4.47584,47.61955 l 32.69503,40.86867 z"
     id="path4044"
     inkscape:connector-curvature="0"
     style="fill:#ffb6b6;stroke-width:1.79572165" />
  <path
     d="m 952.65923,395.79991 -53.47337,26.7365 40.58068,127.1534 a 55.625784,55.625784 0 0 0 40.10865,37.20089 v 0 a 55.625766,55.625766 0 0 0 60.58301,-25.49387 l 107.6085,-184.44562 a 56.781188,56.781188 0 0 0 -18.3086,-77.18372 v 0 a 56.781529,56.781529 0 0 0 -81.3393,22.92258 l -65.6803,139.95195 z"
     id="path4046"
     style="fill:#576066;fill-opacity:1;stroke-width:1.79572165"
     inkscape:connector-curvature="0" />
  <circle
     cx="376.21738"
     cy="133.35324"
     r="100.44376"
     id="circle4048"
     style="fill:#724120;fill-opacity:1;stroke-width:1.79572165" />
  <path
     d="m 276.97982,64.13594 c 8.16682,-11.00747 19.90518,-18.83333 28.88379,-29.18926 4.92645,-5.68212 9.01706,-12.12024 14.55551,-17.20704 10.29018,-9.4512 24.68085,-13.32389 38.6444,-13.8055 a 97.515914,97.515914 0 0 1 79.60637,37.77918 q 10.94817,-6.41919 21.89636,-12.83808 4.32532,11.38432 8.65066,22.76891 a 13.271694,13.271694 0 0 1 20.22637,16.60683 c 1.73689,-5.36741 9.69538,-6.50613 14.08296,-2.96034 4.38757,3.54609 5.56245,9.85493 4.84686,15.45064 a 31.101469,31.101469 0 0 1 -23.46081,25.72551 c -9.52461,2.12195 -20.61027,-0.10721 -28.23339,5.98419 -6.11177,4.88353 -7.95685,13.77612 -14.19393,18.4982 -7.68579,5.81876 -18.54872,3.12774 -28.10241,4.41354 -16.71473,2.25004 -29.94971,19.34531 -27.94097,36.09085 -1.51219,-5.28384 -3.10146,-10.72066 -6.53378,-15.01282 -3.43259,-4.29216 -9.21355,-7.19491 -14.47789,-5.61693 -8.70176,2.60832 -10.12531,14.46942 -8.01637,23.30525 5.59323,23.43417 26.79094,61.31312 26.79094,61.31312 -27.52431,10.85729 -60.31607,0.59079 -81.55301,-20.01152 -21.23668,-20.60232 -32.2972,-49.77522 -37.11526,-78.96841 -4.08553,-24.75566 -3.50655,-52.1759 11.4436,-72.32632 z"
     id="path4050"
     style="fill:#365465;fill-opacity:1;stroke-width:1.79572165"
     inkscape:connector-curvature="0" />
  <path
     d="m 1294.1083,199.13156 c 19.1094,-43.81219 8.2834,-84.12902 -15.0122,-105.5166 v -0.018 c -9.1582,-20.52509 -21.3332,-36.36336 -35.268,-40.0805 -6.7339,-4.32769 -13.2704,-9.40958 -20.5251,-11.99543 a 26.733574,26.733574 0 0 0 -20.9741,0.95174 l -3.6991,-0.98764 c -3.1425,-8.02689 -6.8238,-8.1885 -10.918,-2.90908 -15.7664,-7.3445 -29.9707,-10.63066 -42.6125,-10.63066 -41.2297,0 -65.6157,34.90882 -72.0803,77.10828 l 34.4599,9.17614 11.9775,-19.08852 -5.5309,20.81241 19.0167,5.04598 c 28.9471,37.6922 -5.6924,124.64104 -49.5978,173.01779 q 15.6767,-4.33667 31.2277,-7.32654 l 37.6741,-55.23641 -23.3443,50.28022 c 12.1211,-1.77777 27.5822,-0.0719 44.48,3.358 5.6924,-7.43429 8.6913,-17.34667 5.7463,-26.18163 a 100.10335,100.10335 0 0 1 9.8406,29.68328 c 35.663,8.70925 84.3091,13.18059 110.5266,16.48472 21.1822,-6.91467 21.2399,-85.00906 -5.3871,-105.94758 z"
     id="path4052"
     style="fill:#365465;fill-opacity:1;stroke-width:1.79572165"
     inkscape:connector-curvature="0" />
  <path
     d="m 1306.5407,50.10155 c 13.9969,31.34117 -14.2458,44.82182 -40.1189,44.44113 -23.3784,-0.34401 -43.2474,-16.76828 -44.441,-40.11888 a 42.335182,42.335182 0 0 1 40.1189,-44.44109 c 23.3505,-1.19357 34.9067,18.77001 44.441,40.11884 z"
     id="path4054"
     style="fill:#365465;fill-opacity:1;stroke-width:1.79572165"
     inkscape:connector-curvature="0" />
  <path
     d="m 657.20181,560.29926 -23.05628,-38.45673 76.66143,-58.1601 31.87406,-33.6531 a 34.408507,34.408507 0 0 1 57.90283,13.65379 v 0 a 34.40847,34.40847 0 0 1 -21.80413,42.57034 l -49.53069,16.90935 z"
     id="path4056"
     style="fill:#724120;fill-opacity:1;stroke-width:1.79572165"
     inkscape:connector-curvature="0" />
  <path
     d="m 673.86598,559.03009 -35.89648,29.91673 -9.67893,8.06279 -1.1312,0.93378 q -3.74408,1.85857 -7.54203,3.66326 -11.36692,5.41411 -23.02116,10.2895 a 512.64754,512.64754 0 0 1 -62.79638,21.60253 q -6.08737,1.67002 -12.22887,3.17843 c -2.49605,0.61054 -5.01007,1.22108 -7.52407,1.79571 -1.58024,0.37711 -3.17844,0.73625 -4.77663,1.07744 -1.93937,0.43097 -3.87876,0.86195 -5.81813,1.25691 q -3.04375,0.64662 -6.0875,1.23906 a 55.601416,55.601416 0 0 1 -17.27484,-40.29601 c 0,-0.48475 0,-0.98765 0.018,-1.49036 l 5.76427,-147.84177 2.55002,-65.52588 a 56.777129,56.777129 0 0 1 56.90642,-55.27232 c 1.72389,0 3.42983,0.0898 5.11781,0.2514 1.22109,1.58024 2.3524,3.21435 3.44778,4.86641 2.9809,4.41747 7.00332,11.40283 11.74402,20.16595 1.95734,3.60941 4.02242,7.52408 6.19524,11.6722 1.31088,2.49606 12.62392,37.79994 23.63171,73.85803 l -4.84846,37.65629 -8.76312,67.87837 35.95035,-23.59578 25.31968,-16.62839 2.99885,5.01007 7.81139,13.03693 15.08407,25.14011 z"
     id="path4058"
     style="fill:#576066;fill-opacity:1;stroke-width:1.79572165"
     inkscape:connector-curvature="0" />
  <path
     d="m 654.18493,516.77682 c -0.018,3.05272 -0.0898,6.05157 -0.2514,9.01452 a 174.63104,174.63104 0 0 1 -2.83725,24.34999 142.12148,142.12148 0 0 1 -13.12673,38.80555 c -0.82603,1.6341 -1.70592,3.25036 -2.60379,4.83049 -2.31648,1.2212 -4.66887,2.40627 -7.02127,3.59144 -0.39506,0.19762 -0.79012,0.39505 -1.18518,0.57463 q -15.00326,7.46122 -30.56318,13.95276 a 512.64754,512.64754 0 0 1 -62.79639,21.60253 q -6.08737,1.67002 -12.22886,3.17843 -11.98632,2.96294 -24.20634,5.36921 a 520.8892,520.8892 0 0 1 -100.66816,9.76872 c -2.24465,0 -4.47134,-0.018 -6.71599,-0.0359 -0.68238,0 -1.36475,-0.018 -2.06508,-0.0359 -1.9753,-0.0359 -4.02242,-0.0719 -6.10546,-0.1257 A 518.22931,518.22931 0 0 1 263.57953,634.57616 q -4.60602,-1.21211 -9.17613,-2.51401 A 513.87197,513.87197 0 0 1 169.0707,599.3441 c -30.13221,-62.00627 -24.47568,-95.11937 -29.93468,-170.32421 11.2053,-27.99529 200.77964,-8.2244 346.7359,23.39826 39.61363,8.58355 75.99495,18.047 104.74446,27.67208 29.70123,9.93033 51.23193,20.02229 59.67183,29.50381 a 14.253182,14.253182 0 0 1 3.89672,7.18278 z"
     id="path4060"
     style="fill:#365465;fill-opacity:1;stroke-width:1.79572165"
     inkscape:connector-curvature="0" />
  <path
     d="m 139.14661,441.89508 c -0.27882,-4.65579 -0.59052,-9.46513 -0.95408,-14.47329 18.20862,-45.46767 506.80654,35.03454 515.04891,87.75693 -0.0227,4.83379 -0.22941,9.52475 -0.57695,14.1046 C 632.70398,477.24638 168.52942,400.73421 139.14661,441.89508 Z"
     id="path4062"
     inkscape:connector-curvature="0"
     style="opacity:0.2;stroke-width:1.79572165" />
</svg>
