<?xml version="1.0" encoding="UTF-8" standalone="no"?>
<svg
   xmlns:dc="http://purl.org/dc/elements/1.1/"
   xmlns:cc="http://creativecommons.org/ns#"
   xmlns:rdf="http://www.w3.org/1999/02/22-rdf-syntax-ns#"
   xmlns:svg="http://www.w3.org/2000/svg"
   xmlns="http://www.w3.org/2000/svg"
   xmlns:sodipodi="http://sodipodi.sourceforge.net/DTD/sodipodi-0.dtd"
   xmlns:inkscape="http://www.inkscape.org/namespaces/inkscape"
   viewBox="0 0 24 24"
   width="24"
   height="24"
   version="1.1"
   id="svg3872"
   sodipodi:docname="logo.svg"
   inkscape:version="0.92.5 (2060ec1f9f, 2020-04-08)">
  <metadata
     id="metadata3878">
    <rdf:RDF>
      <cc:Work
         rdf:about="">
        <dc:format>image/svg+xml</dc:format>
        <dc:type
           rdf:resource="http://purl.org/dc/dcmitype/StillImage" />
        <dc:title></dc:title>
      </cc:Work>
    </rdf:RDF>
  </metadata>
  <defs
     id="defs3876" />
  <sodipodi:namedview
     pagecolor="#ffffff"
     bordercolor="#666666"
     borderopacity="1"
     objecttolerance="10"
     gridtolerance="10"
     guidetolerance="10"
     inkscape:pageopacity="0"
     inkscape:pageshadow="2"
     inkscape:window-width="1920"
     inkscape:window-height="1138"
     id="namedview3874"
     showgrid="false"
     inkscape:zoom="18.27"
     inkscape:cx="6.0536937"
     inkscape:cy="16.487162"
     inkscape:window-x="0"
     inkscape:window-y="32"
     inkscape:window-maximized="1"
     inkscape:current-layer="layer2" />
  <path
     d="m -28.516694,-13.847838 h 24 v 24 h -24 z"
     id="path3868"
     inkscape:connector-curvature="0"
     style="fill:none" />
  <path
     style="fill:#d7eef4;stroke:none;stroke-width:0.95846868px;stroke-linecap:butt;stroke-linejoin:miter;stroke-opacity:1"
     d="M 6.394345,4.5893206 22.827198,7.4922331 20.656052,20.050954 4.0564445,16.900879 Z"
     id="path3957"
     inkscape:connector-curvature="0" />
  <g
     inkscape:groupmode="layer"
     id="layer1"
     inkscape:label="Layer 1">
    <path
       style="fill:#333333;stroke-width:0.95846868"
       inkscape:connector-curvature="0"
       d="M 5.1620373,15.889492 20.055676,18.667364 21.916485,8.1584835 7.0228478,5.3806117 Z m 8.0393437,3.473259 -0.33833,1.910705 3.72341,0.69447 -0.33833,1.910703 -9.3085238,-1.73617 0.3383296,-1.910706 3.7234092,0.694468 0.33833,-1.910705 -7.4542663,-1.390325 A 0.94420645,0.96905849 0 0 1 3.132354,16.490922 L 5.3291231,4.0847119 C 5.4231747,3.5535346 5.923011,3.2016664 6.4228785,3.2948999 L 23.193113,6.4227838 c 0.510107,0.095142 0.847449,0.6011821 0.753058,1.134269 L 21.7494,19.963263 c -0.09406,0.531177 -0.593887,0.883046 -1.093754,0.789813 z"
       id="path3932" />
  </g>
  <g
     inkscape:groupmode="layer"
     id="layer2"
     inkscape:label="Layer 2">
    <path
       style="fill:#d7eef4;fill-opacity:1;stroke:none;stroke-width:0.62647891px;stroke-linecap:butt;stroke-linejoin:miter;stroke-opacity:1"
       d="M 10.304149,0.76847999 13.061391,3.6497482 15.588882,10.80911 13.138189,12.152334 11.61939,8.1892931 1.8714994,11.866072 0.60230744,10.200491 10.80586,5.7034864 9.3067465,1.3482576 Z"
       id="path4766"
       inkscape:connector-curvature="0"
       sodipodi:nodetypes="cccccccccc" />
    <path
       d="m 16.213182,10.68707 c 0.133039,0.362765 0.01455,0.769127 -0.264653,0.907636 l -2.527714,1.253964 c -0.279204,0.138509 -0.613393,-0.04329 -0.746432,-0.406052 L 11.469938,9.1583985 1.8477356,13.430551 C 1.5685324,13.56906 1.2343441,13.387265 1.1013047,13.024501 L 0.1377491,10.397125 C 0.00471008,10.034359 0.1231991,9.6279965 0.40240228,9.4894874 L 10.024603,5.2173356 8.6997148,1.6046952 C 8.5666755,1.2419302 8.6851652,0.83556729 8.9643693,0.69705849 L 10.168572,0.09966994 C 10.360053,0.00483558 10.586573,0.05865396 10.75374,0.23869572 L 13.44296,3.133365 Z M 13.997653,7.9044356 12.545573,3.9449801 10.337924,1.5683472 9.9516895,1.7599531 11.517468,6.0294385 1.3897226,10.552385 1.8714994,11.866072 11.999246,7.3431263 12.481023,8.6568138 Z M 14.961207,10.531812 14.479431,9.2181227 12.9628,9.9705014 13.444578,11.28419 Z"
       id="path3870"
       inkscape:connector-curvature="0"
       style="fill:#333333;stroke-width:0.62647891"
       sodipodi:nodetypes="sccscccsccsscccsccccccccccccccc" />
  </g>
  <g
     id="g4834"
     transform="matrix(0.94609864,0,0,0.97100049,28.478328,13.394664)">
    <path
       inkscape:connector-curvature="0"
       id="path4814"
       d="m -16.310892,-0.68527641 -2.627258,0.49261084 -1.313629,1.09469075 -2.189381,0.49261082 v 0"
       style="fill:none;stroke:#333333;stroke-width:0.2;stroke-linecap:butt;stroke-linejoin:miter;stroke-miterlimit:3.5999999;stroke-dasharray:none;stroke-opacity:1" />
    <path
       inkscape:connector-curvature="0"
       id="path4818"
       d="m -18.93815,-0.19266557 1.149425,0.98522167 -0.218938,0.8757526 v 0 0 0 0"
       style="fill:none;stroke:#333333;stroke-width:0.2;stroke-linecap:butt;stroke-linejoin:miter;stroke-miterlimit:4;stroke-dasharray:none;stroke-opacity:1" />
    <path
       inkscape:connector-curvature="0"
       id="path4820"
       d="m -16.310892,-0.68527641 1.860974,2.07991241 -0.492611,1.0946908 v 0"
       style="fill:none;stroke:#333333;stroke-width:0.2;stroke-linecap:butt;stroke-linejoin:miter;stroke-miterlimit:4;stroke-dasharray:none;stroke-opacity:1" />
    <path
       inkscape:connector-curvature="0"
       id="path4822"
       d="m -15.32567,0.57361795 1.09469,-0.32840722"
       style="fill:none;stroke:#333333;stroke-width:0.2;stroke-linecap:butt;stroke-linejoin:miter;stroke-miterlimit:4;stroke-dasharray:none;stroke-opacity:1" />
    <path
       inkscape:connector-curvature="0"
       id="path4824"
       d="m -9.6880126,-4.1335523 h -0.054735 -3.0103994 l -3.557745,3.44827589 -3.119869,-1.03995619 -0.985221,-0.9304872"
       style="fill:none;stroke:#333333;stroke-width:0.2;stroke-linecap:butt;stroke-linejoin:miter;stroke-miterlimit:4;stroke-dasharray:none;stroke-opacity:1" />
    <path
       inkscape:connector-curvature="0"
       id="path4826"
       d="m -19.430761,-1.7252326 0.164204,-1.423098 v 0"
       style="fill:none;stroke:#333333;stroke-width:0.2;stroke-linecap:butt;stroke-linejoin:miter;stroke-miterlimit:4;stroke-dasharray:none;stroke-opacity:1" />
  </g>
</svg>
